# xmcd
#
# Track frame offsets:
#	150
#	10154
#	19347
#	28936
#	40055
#	48035
#	58048
#	69610
#	82020
#	93413
#	107014
#	115977
#	126943
#	136455
#
# Disc length: 1988 seconds
#
# Revision: 1
# Processed by: cddbd v1.5.2PL0 Copyright (c) Steve Scherf et al.
# Submitted via: audiograbber 1.83.01
#
DISCID=be07c20e
DTITLE=Beatles, The - With The Beatles (2009 Stereo Remaster)
DYEAR=2009
DGENRE=Pop
TTITLE0=It Won't Be Long
TTITLE1=All I've Got To Do
TTITLE2=All My Loving
TTITLE3=Don't Bother Me
TTITLE4=Little Child
TTITLE5=Till There Was You
TTITLE6=Please Mister Postman
TTITLE7=Roll Over Beethoven
TTITLE8=Hold Me Tight
TTITLE9=You Really Got A Hold On Me
TTITLE10=I Wanna Be Your Man
TTITLE11=Devil In Her Heart
TTITLE12=Not A Second Time
TTITLE13=Money (That's What I Want)
EXTD=
EXTT0=
EXTT1=
EXTT2=
EXTT3=
EXTT4=
EXTT5=
EXTT6=
EXTT7=
EXTT8=
EXTT9=
EXTT10=
EXTT11=
EXTT12=
EXTT13=
PLAYORDER=
